# xmcd
#
# Track frame offsets:
#	150
#	13162
#	31500
#	44625
#	60975
#	73800
#	94050
#	104737
#	123037
#	136912
#	151687
#	165075
#	178912
#	189112
#
# Disc length: 2754 seconds
# Revision: 0
# Processed by: cddbd v1.5.2PL0 Copyright (c) Steve Scherf et al.
# Submitted via: dBpowerAMP V12.0
#
DISCID=aa0ac00e
DTITLE=Longview - High Lonesome
DYEAR=1999
DGENRE=Country
TTITLE0=Windy Mountain
TTITLE1=High Lonesome
TTITLE2=Leavin' Tennessee
TTITLE3=Listen to My Hammer Ring
TTITLE4=I'll Love You 'Til the Day I Die
TTITLE5=Angels Are Singing (In Heaven Tonight)
TTITLE6=I'm Going Home Again
TTITLE7=Just Wondering Why
TTITLE8=Voice of My Savior
TTITLE9=Little Annie
TTITLE10=Where the Dim Lights Are the Dimmest
TTITLE11=He'll Save Your Soul Yet
TTITLE12=Does It Have to End This Way?
TTITLE13=Ballad of Maudie Dawson
EXTD=
EXTT0=
EXTT1=
EXTT2=
EXTT3=
EXTT4=
EXTT5=
EXTT6=
EXTT7=
EXTT8=
EXTT9=
EXTT10=
EXTT11=
EXTT12=
EXTT13=
PLAYORDER=
